<svg width="1493" height="246" viewBox="0 0 1493 246" fill="none" xmlns="http://www.w3.org/2000/svg">
<path d="M1250.42 245.158V0L1303.18 0L1359.18 159.031C1360.61 163.32 1362.05 168.085 1363.48 173.326C1365.16 178.33 1366.59 183.095 1367.79 187.621C1369.23 192.148 1370.3 196.079 1371.02 199.415H1373.53C1374.25 195.841 1375.21 191.791 1376.41 187.264C1377.6 182.499 1378.92 177.615 1380.35 172.612C1381.79 167.608 1383.11 163.082 1384.3 159.031L1440.3 0L1492.7 0V245.158H1458.6V101.494C1458.6 94.1084 1458.72 86.1271 1458.96 77.5501C1459.2 68.7349 1459.44 60.7535 1459.68 53.6061C1459.92 46.2203 1460.04 40.9789 1460.04 37.8816H1457.17C1456.45 40.9789 1455.25 45.3865 1453.58 51.1045C1451.9 56.5842 1450.11 62.4213 1448.19 68.6158C1446.52 74.572 1444.96 79.9326 1443.53 84.6976L1385.74 245.158H1356.3L1298.51 84.6976C1297.08 80.6474 1295.52 76.0015 1293.85 70.76C1292.41 65.2803 1290.86 59.6814 1289.18 53.9634C1287.75 48.2455 1286.31 42.8849 1284.87 37.8816H1282.36C1282.6 43.1231 1282.72 49.675 1282.72 57.5372C1282.96 65.1612 1283.08 72.9043 1283.08 80.7665C1283.32 88.3904 1283.44 95.2997 1283.44 101.494V245.158H1250.42Z" fill="white"/>
<path d="M1018.42 245.158V0L1207.94 0V29.3047L1052.51 29.3047V105.068L1192.14 105.068V134.373L1052.51 134.373V215.854L1210.09 215.854V245.158L1018.42 245.158Z" fill="white"/>
<path d="M778.463 245.158V0L908.042 0C924.793 0 938.672 3.09724 949.68 9.29172C960.926 15.2479 969.302 23.7058 974.806 34.6653C980.309 45.3865 983.061 57.7754 983.061 71.8321C983.061 88.7478 979.233 103.281 971.575 115.432C963.918 127.582 953.389 136.279 939.988 141.52L991.676 245.158H954.346L906.247 147.595L812.563 147.595V245.158H778.463ZM812.563 118.648L904.811 118.648C918.451 118.648 929.1 114.479 936.758 106.14C944.654 97.8013 948.603 86.3653 948.603 71.8321C948.603 62.7787 946.928 55.1547 943.577 48.9602C940.227 42.7657 935.322 38.0007 928.861 34.6653C922.4 31.0915 914.383 29.3047 904.811 29.3047L812.563 29.3047V118.648Z" fill="white"/>
<path d="M357.432 245.158L357.432 0L391.531 0L391.531 215.496L513.932 215.496V245.158L357.432 245.158Z" fill="white"/>
<path fill-rule="evenodd" clip-rule="evenodd" d="M512.601 118.77C512.601 53.7816 565.516 1.09814 630.79 1.09814C696.064 1.09814 748.979 53.7816 748.979 118.77V127.486C748.979 192.475 696.064 245.158 630.79 245.158C565.516 245.158 512.601 192.475 512.601 127.486V118.77ZM630.79 31.6057C582.439 31.6057 543.242 70.6305 543.242 118.77V127.486C543.242 175.626 582.439 214.651 630.79 214.651C679.141 214.651 718.337 175.626 718.337 127.486V118.77C718.337 70.6305 679.141 31.6057 630.79 31.6057Z" fill="white"/>
<path fill-rule="evenodd" clip-rule="evenodd" d="M161.473 0.134394C151.903 0.981987 141.635 4.00235 134.352 8.11187C133.362 8.67078 132.465 9.12796 132.36 9.12796C132.254 9.12796 130.673 8.4275 128.847 7.57165C114.537 0.866903 98.8005 -0.746462 83.5573 2.92822C71.5069 5.83325 61.0029 11.6455 52.206 20.2758C43.2373 29.0749 37.3438 39.4099 34.4032 51.4955C33.3154 55.9665 32.8671 59.1651 32.6972 63.6723L32.5491 67.5942L29.4221 69.6766C13.4669 80.302 3.2954 96.3444 0.463135 115.35C-0.202696 119.817 -0.141171 128.79 0.586926 133.412C3.37032 151.086 12.6168 166.225 27.0393 176.721C28.6766 177.912 30.9904 179.45 32.1809 180.139L34.3456 181.39L34.3543 182.483C34.3694 184.411 35.0817 190.294 35.6182 192.923C38.7395 208.217 47.0924 221.852 59.1684 231.365C68.82 238.968 80.1386 243.735 92.779 245.521C97.3984 246.173 105.797 246.111 110.751 245.388C119.178 244.157 127.863 241.272 134.641 237.451L135.819 236.787L138.982 238.27C148.741 242.844 157.95 244.929 168.442 244.94C182.566 244.955 195.118 241.137 206.769 233.282C210.373 230.852 212.547 229.058 216.084 225.593C224.332 217.515 229.977 208.013 233.187 196.808C234.589 191.912 235.546 185.507 235.546 181.011V178.443L238.709 176.347C254.367 165.968 264.687 149.922 267.578 131.461C268.304 126.829 268.366 117.843 267.704 113.408C265.642 99.5905 260.081 87.8636 250.853 77.8704C246.885 73.5725 240.898 68.7275 236.111 65.9388L233.823 64.6064L233.814 63.5138C233.797 61.5836 233.085 55.7007 232.55 53.0736C226.94 25.4869 204.681 4.74869 176.256 0.625324C172.457 0.0744244 164.961 -0.174683 161.473 0.134394ZM196.846 9.72208C196.846 9.78157 196.26 10.2125 195.544 10.6794C191.382 13.3926 185.246 18.9784 181.644 23.3314C175.052 31.3004 170.09 41.5701 168.072 51.4183C167.456 54.4275 166.84 59.2042 166.796 61.3214L166.763 62.9068L166.542 61.0858C166.421 60.0843 166.094 57.8445 165.815 56.1086C164.12 45.5674 159.877 35.8576 153.084 26.9733C149.025 21.6646 140.839 14.2385 136.006 11.4797C135.358 11.1096 134.828 10.7693 134.828 10.7229C134.828 10.6767 136.079 11.1854 137.609 11.8536C143.324 14.3492 150.029 16.1993 156.41 17.0409C160.188 17.5391 168.811 17.6085 172.411 17.1698C180.275 16.2112 188.408 13.8464 194.613 10.7139C196.997 9.51061 196.846 9.57762 196.846 9.72208ZM129.371 11.0222C117.386 19.0036 108.566 30.0881 103.544 43.4816C101.79 48.1614 100.366 54.5889 99.864 60.1003C99.7127 61.7618 99.5527 63.1566 99.5083 63.1999C99.4641 63.2433 99.3579 62.3158 99.2726 61.1393C99.0595 58.1995 98.0533 53.027 96.9916 49.4118C92.7492 34.9666 82.8548 21.6042 70.369 13.4584C67.6803 11.7042 67.6989 11.68 70.7227 12.9969C76.0184 15.3032 81.921 16.9772 88.0656 17.9154C90.9408 18.3544 92.6061 18.4464 97.7405 18.45C104.365 18.4549 106.756 18.2172 112.501 16.9826C117.689 15.8674 124.956 13.2681 128.626 11.2153C129.887 10.5092 130.303 10.4017 129.371 11.0222ZM200.087 16.6546C202.691 34.7959 213.42 51.5533 228.848 61.5775C231.08 63.0282 231.185 63.168 229.468 62.4086C220.013 58.2257 211.384 56.3888 201.187 56.3888C190.718 56.3888 181.943 58.3015 172.287 62.6878C170.718 63.4004 169.713 63.7959 170.053 63.5667C174.468 60.592 180.387 55.361 183.562 51.6273C192.626 40.9696 197.828 28.6284 199.123 14.7122C199.304 12.7759 199.48 11.6287 199.516 12.1629C199.552 12.697 199.809 14.7183 200.087 16.6546ZM132.591 14.4694C132.597 16.0575 133.486 21.146 134.329 24.413C138.214 39.4769 147.707 52.9683 160.681 61.8669C163.904 64.078 163.911 64.0863 161.775 63.153C155.318 60.3329 148.252 58.4615 141.074 57.6707C137.609 57.289 127.592 57.5051 124.16 58.0359C117.726 59.0308 110.595 61.1985 105.059 63.8423C103.626 64.5265 102.342 65.1274 102.206 65.1777C102.069 65.2279 102.814 64.6828 103.86 63.9666C115.894 55.7254 125.42 42.7411 129.482 29.0414C131.027 23.8299 132.094 17.8154 132.103 14.275C132.105 13.1353 132.178 12.7575 132.347 13.0127C132.479 13.213 132.589 13.8685 132.591 14.4694ZM65.8783 18.3449C68.4841 36.4753 78.3875 52.4094 93.5537 62.8735C94.935 63.8267 96.2746 64.737 96.5306 64.8967C96.7866 65.0563 95.7125 64.6384 94.1434 63.9678C88.5243 61.5663 82.5583 59.8988 76.2198 58.9577C72.2586 58.3697 61.668 58.3753 57.6765 58.9675C50.4176 60.0445 43.1088 62.2627 37.0218 65.2366C35.1831 66.135 35.2595 66.0532 38.3627 63.7993C44.7672 59.1471 50.361 53.2281 54.8083 46.3968C56.7956 43.3444 60.1719 36.5042 61.3768 33.09C63.3242 27.5718 64.4554 22.3129 64.9384 16.5332C65.1058 14.5301 65.2723 13.3283 65.3083 13.8624C65.3442 14.3966 65.6007 16.4137 65.8783 18.3449ZM229.184 67.5507C215.46 77.1719 205.913 91.5943 202.526 107.824C201.876 110.938 201.311 115.38 201.311 117.385C201.311 118.247 201.261 118.903 201.2 118.843C201.139 118.783 200.917 117.289 200.707 115.522C198.397 96.1302 187.552 78.8246 171.046 68.1951C170.16 67.624 169.502 67.1564 169.586 67.1562C169.669 67.1559 170.674 67.5813 171.818 68.1019C186.995 75.0018 205.346 75.7686 221.654 70.1841C224.338 69.2648 230.027 66.8272 230.447 66.4164C230.577 66.2889 230.784 66.1845 230.908 66.1845C231.032 66.1845 230.256 66.7993 229.184 67.5507ZM163.854 67.3504C159.814 70.0403 154.981 74.0972 152.051 77.2574C141.632 88.4953 135.663 101.646 134.323 116.321C134.024 119.588 133.836 120.468 133.834 118.608C133.832 116.958 132.954 111.487 132.223 108.575C130.5 101.712 127.664 95.1323 123.841 89.1285C119.22 81.8739 111.452 74.0634 104.218 69.4015C102.059 68.0096 101.928 67.7967 103.806 68.728C107.185 70.4035 113.445 72.4775 118.083 73.4581C126.896 75.3213 136.643 75.3733 145.569 73.6043C151.171 72.494 157.082 70.5138 161.868 68.1436C164.452 66.8639 164.783 66.7315 163.854 67.3504ZM234.793 74.6893C235.448 78.4055 236.573 82.6039 237.808 85.9467C240.069 92.0622 244.496 99.7126 248.851 105.032C252.518 109.509 258.118 114.499 263.398 117.994C264.732 118.877 265.779 119.599 265.724 119.599C265.669 119.599 264.522 119.097 263.175 118.484C257.677 115.982 249.353 113.756 242.74 113.021C241.307 112.862 238.07 112.731 235.546 112.731C230.265 112.731 227.205 113.025 222.15 114.016C216.497 115.123 209.437 117.533 205.033 119.858C203.506 120.664 203.56 120.617 207.591 117.678C210.592 115.489 215.566 110.828 218.234 107.702C227.258 97.1332 232.569 84.102 233.718 69.705L233.912 67.2771L234.102 69.5654C234.207 70.8238 234.518 73.1296 234.793 74.6893ZM95.3024 69.4256C82.7325 77.9887 73.1883 91.4827 69.2182 106.305C68.178 110.189 67.4246 114.615 67.1624 118.385L66.9681 121.177L66.6548 118.264C64.5591 98.7687 53.4339 80.8153 36.9263 70.2889C36.0593 69.7361 35.3498 69.2495 35.3498 69.2075C35.3498 69.1655 36.3994 69.6113 37.6822 70.1979C42.474 72.3894 49.3082 74.3521 55.6011 75.3437C59.0431 75.8861 70.4861 75.9514 73.9254 75.4483C81.2832 74.372 88.6312 72.1966 94.223 69.4392C95.6118 68.7542 96.8519 68.1788 96.9784 68.1604C97.1052 68.1419 96.351 68.7113 95.3024 69.4256ZM167.077 71.4085C168.399 83.9075 174.041 97.0388 182.151 106.488C186.102 111.091 191.65 115.984 196.574 119.206C197.721 119.957 198.602 120.57 198.533 120.57C198.464 120.57 197.341 120.083 196.037 119.487C191.313 117.326 184.51 115.37 178.117 114.335C175.917 113.979 174.016 113.895 168.318 113.901C162.134 113.907 160.846 113.977 158.047 114.452C150.814 115.682 143.711 117.935 138.301 120.716C136.258 121.766 136.265 121.719 138.364 120.271C149.184 112.809 157.86 101.789 162.475 89.6481C164.559 84.1651 166.208 76.6735 166.505 71.3407C166.589 69.8366 166.689 68.6367 166.726 68.6739C166.765 68.711 166.923 69.9417 167.077 71.4085ZM100.826 77.8386C102.484 86.3517 106.036 94.8939 110.846 101.94C113.744 106.185 115.358 108.098 119.308 111.974C123.045 115.641 124.791 117.073 128.855 119.806C130.275 120.761 131.359 121.542 131.264 121.542C131.17 121.542 130.403 121.201 129.561 120.785C127.14 119.589 122.797 118.019 119.308 117.078C112.6 115.27 106.724 114.603 99.378 114.816C92.2834 115.022 86.9242 115.949 80.2513 118.124C76.7777 119.257 71.6069 121.39 70.5049 122.146C70.2107 122.348 69.8698 122.513 69.7473 122.513C69.625 122.513 70.7383 121.651 72.2213 120.598C87.8126 109.523 97.7187 92.1484 99.3981 72.9322L99.7015 69.4622L99.9915 72.2544C100.151 73.79 100.526 76.3029 100.826 77.8386ZM32.9509 73.5897C33.2496 77.5002 34.4148 82.7858 36.0166 87.4974C40.5934 100.959 49.9413 113.038 61.8938 120.934C63.0535 121.701 64.0523 122.372 64.1133 122.427C64.1741 122.482 63.0796 122.031 61.6809 121.424C46.0312 114.633 28.5913 113.903 12.4121 119.363C9.31939 120.407 3.4373 122.904 3.2056 123.271C3.13142 123.388 2.95182 123.484 2.80644 123.484C2.66083 123.484 3.42093 122.864 4.49558 122.106C16.0692 113.941 24.5961 102.649 29.0597 89.5753C30.886 84.2256 32.3613 76.6599 32.3804 72.5455C32.3905 70.39 32.7579 71.0627 32.9509 73.5897ZM265.046 122.847C264.989 122.897 263.882 123.72 262.586 124.676C253.852 131.116 247.327 138.817 242.508 148.37C238.741 155.838 236.297 164.628 235.87 172.239C235.78 173.84 235.631 174.852 235.511 174.666C235.398 174.492 235.304 173.857 235.301 173.257C235.299 172.656 235.07 170.798 234.792 169.129C231.644 150.216 221.089 134.481 204.381 123.793C203.975 123.534 203.995 123.524 204.536 123.714C204.878 123.834 205.715 124.2 206.397 124.527C208.295 125.437 212.187 126.813 215.512 127.75C230.688 132.025 247.568 130.738 261.842 124.217C264.929 122.807 265.242 122.673 265.046 122.847ZM198.694 123.444C198.565 123.556 197.454 124.347 196.226 125.202C180.581 136.095 170.469 153.721 168.763 173.075L168.458 176.534L168.17 173.742C166.852 160.964 161.52 148.47 153.125 138.486C149.403 134.059 143.787 129.072 139.107 126.036C138.118 125.394 137.308 124.829 137.308 124.78C137.308 124.731 137.727 124.874 138.239 125.096C145.01 128.044 150.396 129.615 157.402 130.689C161.444 131.308 171.946 131.306 176.008 130.685C179.942 130.084 185.238 128.809 188.763 127.613C191.788 126.587 197.126 124.315 198.132 123.626C198.725 123.219 199.093 123.1 198.694 123.444ZM130.97 124.899C130.841 125.009 130.009 125.599 129.122 126.209C117.521 134.195 108.131 147.302 104.09 161.148C102.687 165.957 101.586 172.424 101.586 175.859C101.586 176.742 101.537 177.418 101.478 177.36C101.419 177.302 101.243 176.055 101.086 174.588C100.241 166.696 98.0523 159.388 94.3602 152.134C90.8798 145.296 87.5444 140.796 81.7529 135.121C77.8616 131.309 75.4185 129.308 71.5878 126.796C70.4384 126.043 69.5568 125.426 69.6287 125.426C69.7009 125.426 70.8262 125.914 72.1295 126.51C76.8343 128.662 82.9982 130.467 89.3132 131.543C92.1544 132.027 93.3727 132.091 99.7251 132.091C106.066 132.091 107.302 132.026 110.144 131.545C116.659 130.441 122.782 128.574 128.203 126.038C131.143 124.663 131.344 124.58 130.97 124.899ZM202.068 131.527C204.959 149.354 215.618 165.566 231.018 175.56C232.007 176.202 232.817 176.767 232.817 176.817C232.817 176.866 232.287 176.645 231.639 176.325C226.723 173.895 219.503 171.748 212.566 170.652C209.128 170.108 197.69 170.044 194.241 170.548C186.968 171.612 180.082 173.638 174.023 176.495C172.591 177.171 171.307 177.771 171.17 177.829C171.034 177.887 171.899 177.249 173.093 176.412C185.644 167.61 194.681 154.904 198.822 140.24C199.836 136.651 200.767 131.25 200.993 127.652L201.172 124.819L201.371 126.64C201.481 127.642 201.794 129.841 202.068 131.527ZM64.3745 125.527C64.3745 125.583 63.5092 126.222 62.4517 126.947C51.0943 134.736 42.0131 146.885 37.6358 160.146C35.9514 165.249 35.2888 168.6 34.3945 176.534C34.2228 178.059 34.1685 178.23 34.1427 177.332C34.1243 176.702 33.9348 174.954 33.7215 173.447C32.0584 161.701 27.0316 150.374 19.3071 140.965C15.5845 136.431 9.48287 131.014 4.46457 127.789C3.23661 127 2.18279 126.307 2.12251 126.249C2.06247 126.191 3.23462 126.703 4.72729 127.387C10.2628 129.924 17.575 131.951 24.475 132.86C28.1425 133.343 36.0015 133.404 39.8152 132.978C43.474 132.57 49.1618 131.405 52.4937 130.382C55.5632 129.44 61.6665 126.985 63.2582 126.053C64.4077 125.38 64.3745 125.396 64.3745 125.527ZM134.817 131.621C136.467 142.818 141.297 153.731 148.624 162.816C152.411 167.513 160.107 174.33 164.783 177.131C165.499 177.56 166.085 177.958 166.085 178.015C166.085 178.073 165.422 177.792 164.611 177.391C160.751 175.484 154.691 173.491 149.578 172.448C144.432 171.397 142.23 171.198 135.82 171.203C130.705 171.207 129.172 171.296 126.145 171.765C118.639 172.93 110.568 175.486 104.811 178.525C104.197 178.849 103.973 178.916 104.313 178.674C114.967 171.096 121.59 163.758 126.782 153.779C131.157 145.37 133.075 138.314 134.126 126.762C134.15 126.494 134.211 126.768 134.261 127.369C134.311 127.969 134.561 129.883 134.817 131.621ZM67.4556 130.435C68.1542 136.301 69.4878 141.564 71.6319 146.913C76.5736 159.244 85.212 169.882 96.2121 177.185C97.5835 178.096 98.6442 178.841 98.5693 178.841C98.4944 178.841 97.3741 178.356 96.0794 177.764C91.0633 175.47 83.891 173.483 77.4463 172.602C73.2615 172.029 64.3958 172.033 60.1572 172.609C56.0844 173.163 52.1489 174.036 48.2921 175.243C44.9731 176.282 40.1344 178.227 38.4066 179.218C36.6867 180.204 36.9209 179.891 38.9829 178.449C44.543 174.558 49.6032 169.687 53.7917 164.193C61.2267 154.439 66.11 141.524 66.7756 129.854C66.8612 128.35 66.9644 127.152 67.0046 127.191C67.0448 127.23 67.2477 128.69 67.4556 130.435ZM230.978 181.309C222.067 187.513 215.03 195.679 209.987 205.67C206.005 213.558 204.053 220.45 203.18 229.706C203.003 231.576 202.845 232.645 202.829 232.082C202.783 230.475 202.082 225.853 201.412 222.734C197.946 206.609 187.637 191.683 173.527 182.362C172.367 181.595 171.373 180.928 171.318 180.879C171.263 180.83 172.461 181.334 173.98 182C179.262 184.314 185.599 186.101 191.685 186.993C195.794 187.596 204.227 187.715 208.482 187.233C216.491 186.323 224.224 184.123 230.584 180.945C231.744 180.365 232.791 179.873 232.911 179.852C233.031 179.83 232.161 180.486 230.978 181.309ZM164.421 181.965C159.68 185.161 153.346 191.071 149.883 195.529C142.544 204.976 137.993 215.72 136.45 227.24C136.24 228.81 136.066 230.827 136.064 231.722C136.062 232.861 135.988 233.239 135.82 232.984C135.688 232.784 135.578 232.128 135.576 231.527C135.566 228.791 133.904 221.064 132.39 216.717C127.823 203.605 118.947 191.991 107.486 184.13C104.26 181.917 104.254 181.91 106.423 182.858C111.653 185.146 118.27 187.056 124.195 187.988C128.564 188.675 140.219 188.615 144.526 187.883C151.278 186.736 158.111 184.611 163.356 182.027C166.39 180.532 166.56 180.522 164.421 181.965ZM98.5882 182.096C98.5313 182.15 97.5988 182.815 96.5162 183.574C89.7346 188.328 83.0582 195.404 78.6269 202.533C73.1104 211.407 70.1005 220.486 69.0147 231.527L68.6922 234.805L68.5124 232.62C67.5054 220.377 62.2133 207.636 53.9405 197.536C49.9939 192.718 43.639 187.054 38.8764 184.11C38.0191 183.58 37.3597 183.105 37.4111 183.055C37.4622 183.005 38.4825 183.413 39.6782 183.961C50.6711 189.003 64.696 190.837 77.3919 188.893C83.9989 187.881 91.6021 185.508 96.9963 182.775C98.4324 182.047 98.8072 181.887 98.5882 182.096ZM169.67 190.262C172.855 207.311 183.369 223.122 197.77 232.519C200.111 234.047 200.532 234.416 199.172 233.749C198.609 233.473 196.728 232.693 194.993 232.016C178.568 225.602 159.907 225.92 143.558 232.891C141.879 233.607 139.982 234.474 139.341 234.818C138.701 235.161 138.454 235.244 138.792 235.002C142.374 232.441 144.512 230.789 146.543 229.012C158.147 218.869 166.41 203.221 168.039 188.31C168.178 187.041 168.374 185.238 168.475 184.304L168.659 182.604L168.857 184.789C168.966 185.991 169.332 188.454 169.67 190.262ZM102.351 189.888C104 200.295 108.568 210.647 115.398 219.452C119.252 224.422 127.582 231.913 132.196 234.559C132.825 234.92 133.339 235.247 133.339 235.286C133.339 235.326 132.088 234.811 130.558 234.143C121.79 230.314 113.146 228.543 103.198 228.538C92.5418 228.532 83.0294 230.674 73.7614 235.165C72.3506 235.848 71.3082 236.31 71.4446 236.19C71.5811 236.07 72.775 235.195 74.0978 234.246C82.7757 228.016 89.7513 219.832 94.5242 210.283C98.1434 203.041 99.9734 197.026 100.984 189.051C101.179 187.519 101.353 185.605 101.371 184.799L101.405 183.333L101.628 185.032C101.751 185.967 102.076 188.152 102.351 189.888Z" fill="white"/>
</svg>
